<?xml version="1.0" encoding="UTF-8" standalone="no"?>
<!DOCTYPE svg PUBLIC "-//W3C//DTD SVG 1.1//EN" "http://www.w3.org/Graphics/SVG/1.1/DTD/svg11.dtd">
<svg width="100%" height="100%" viewBox="0 0 256 256" version="1.1" xmlns="http://www.w3.org/2000/svg" xmlns:xlink="http://www.w3.org/1999/xlink" xml:space="preserve" xmlns:serif="http://www.serif.com/" style="fill-rule:evenodd;clip-rule:evenodd;stroke-linejoin:round;stroke-miterlimit:2;">
    <g transform="matrix(4.33681,0,0,4.76017,-39.4389,-927.814)">
        <path d="M68.124,197.517C68.124,196.826 67.822,196.163 67.286,195.675C66.75,195.186 66.023,194.912 65.264,194.912L11.953,194.912C10.374,194.912 9.094,196.078 9.094,197.517L9.094,246.081C9.094,247.522 10.377,248.691 11.96,248.691L65.264,248.691C66.023,248.691 66.75,248.417 67.286,247.928C67.822,247.44 68.124,246.777 68.124,246.086L68.124,197.517Z" style="fill:url(#_Linear1);"/>
    </g>
    <g transform="matrix(4.08838,0,0,4.4875,-29.8475,-867.334)">
        <path d="M68.124,229.852C68.124,210.555 50.953,194.912 29.772,194.912L12.024,194.912C10.406,194.912 9.094,196.107 9.094,197.581L9.094,246.012C9.094,247.492 10.411,248.691 12.035,248.691L65.196,248.691C65.973,248.691 66.717,248.41 67.266,247.91C67.815,247.41 68.124,246.732 68.124,246.025L68.124,229.852Z" style="fill:white;"/>
    </g>
    <g transform="matrix(0.313584,0,0,0.313584,185.689,-10.5478)">
        <rect x="116.62" y="71.11" width="68.27" height="22.76" style="fill:white;"/>
        <g transform="matrix(1,0,0,1,0,45.51)">
            <rect x="116.62" y="71.11" width="68.27" height="22.76" style="fill:white;"/>
        </g>
        <g transform="matrix(1,0,0,1,0,91.02)">
            <rect x="116.62" y="71.11" width="68.27" height="22.76" style="fill:white;"/>
        </g>
        <g transform="matrix(0.333382,0,0,4.99912,32.231,-284.378)">
            <rect x="116.62" y="71.11" width="68.27" height="22.76" style="fill:white;"/>
        </g>
    </g>
    <g id="themeshark-logo" transform="matrix(0.962712,0,0,0.962712,-479.594,-133.897)">
        <g id="gray" transform="matrix(1,0,0,1,552.196,178.404)">
            <g id="tail-bottom" transform="matrix(-1.67343,0,0,1.67343,319.552,-266.875)">
                <path d="M167.654,222.511C167.654,222.511 179.185,234.453 177.768,256.657C177.768,256.657 167.966,268.069 152.049,270.615C152.049,270.615 187.844,253.671 167.654,222.511Z" style="fill:rgb(198,198,198);"/>
            </g>
            <g id="tail-middle" transform="matrix(1,0,0,1,-310.818,-177.798)">
                <path d="M313.086,302.832C317.97,289.656 333.965,257.644 371.046,263.814C325.974,288.688 331.577,339.002 331.577,339.002C319.275,324.723 315.416,313.309 313.086,302.832Z" style="fill:rgb(198,198,198);"/>
            </g>
            <g id="body-eye" transform="matrix(1.26612,0,0,1.26612,-53.7938,-254.526)">
                <path d="M43.771,298.368C47.181,285.806 61.472,256.524 91.431,251.256C108.061,248.331 121.054,250.424 131.172,255.061C154.775,265.878 162.716,290.494 164.726,297.177C164.958,297.951 165.124,298.5 165.225,298.786C164.498,298.849 163.134,298.933 161.144,298.925C152.877,298.891 135.822,297.029 121.46,283.885C101.75,265.847 62.38,252.527 43.771,298.368ZM138.866,268.447C135.765,268.447 133.247,270.964 133.247,274.066C133.247,277.167 135.765,279.684 138.866,279.684C141.967,279.684 144.485,277.167 144.485,274.066C144.485,270.964 141.967,268.447 138.866,268.447Z" style="fill:rgb(198,198,198);"/>
            </g>
        </g>
        <g id="blue" transform="matrix(1,0,0,1,552.196,178.404)">
            <g id="fin-bottom" transform="matrix(0.527592,0.0481088,-0.0481088,0.527592,-311.2,-332.654)">
                <path d="M759.613,884.933C759.613,884.933 830.697,927.821 854.509,847.579C854.509,847.579 862.081,857.738 862.038,875.491C862.038,875.491 898.591,880.292 927.752,852.2C927.752,852.2 884.816,913.396 805.254,910.934C805.254,910.934 794.421,908.969 777.313,898.01C771.754,894.449 765.471,889.75 759.613,884.933Z" style="fill:url(#_Linear2);"/>
            </g>
            <g id="back" transform="matrix(1,0,0,1,-307.566,-162.703)">
                <path d="M381.091,223.345C377.321,223.613 373.384,224.097 369.274,224.82C332.298,231.322 313.8,266.148 308.393,283.374C307.844,279.656 307.566,275.856 307.566,271.991C307.566,228.428 342.934,193.06 386.497,193.06C430.061,193.06 465.429,228.428 465.429,271.991C465.429,275.05 465.254,278.069 464.914,281.038C464.713,282.792 464.431,283.773 464.104,285.101C464.005,284.781 463.889,284.401 463.771,284.006C461.181,275.392 450.902,243.695 420.477,229.751C417.517,228.395 414.367,227.206 411.015,226.223C410.518,231.91 406.404,254.339 372.627,271.519C372.627,271.519 390.193,241.297 381.091,223.345Z" style="fill:url(#_Linear3);"/>
            </g>
            <g id="fin-top" transform="matrix(-0.529781,0,0,0.529781,519.588,-171.677)">
                <path d="M830.884,378.455L830.426,378.458L830.09,378.462C829.702,378.466 829.315,378.472 828.925,378.479L828.599,378.486L828.144,378.496L827.936,378.501C826.19,378.546 824.451,378.621 822.719,378.725C822.378,378.745 822.036,378.767 821.694,378.79L821.347,378.814L820.897,378.846L820.447,378.879L820.265,378.893C818.528,379.027 816.799,379.19 815.079,379.383C814.914,379.401 814.749,379.42 814.584,379.439C801.411,380.96 788.758,384.209 776.863,388.968L776.462,389.129C785.048,373.014 813.93,328.024 870.221,324.053C870.221,324.053 847.428,353.423 862.015,381.528C862.015,381.528 861.786,381.481 861.786,381.481L861.67,381.458L861.557,381.434L861.446,381.412L861.332,381.389L861.213,381.365L861.099,381.342L860.99,381.32L860.877,381.298L860.756,381.274L860.64,381.251L860.534,381.23L860.422,381.208L860.298,381.184L860.181,381.161L860.077,381.141L859.966,381.12L859.84,381.096L859.722,381.073L859.619,381.054L859.51,381.033L859.382,381.009L859.262,380.986L859.161,380.967L859.053,380.947L858.922,380.923L858.801,380.901L858.703,380.883L858.596,380.863L858.463,380.839L858.34,380.817L858.243,380.799L858.138,380.78L858.003,380.756L857.879,380.734L857.784,380.718L857.68,380.699L857.542,380.675L857.417,380.653L857.323,380.637L857.222,380.619L857.081,380.595L856.954,380.573L856.863,380.558L856.762,380.541L856.62,380.517L856.491,380.495L856.401,380.48L856.303,380.464L856.158,380.44L856.027,380.418L855.94,380.404L855.843,380.388L855.696,380.364L855.563,380.343L855.477,380.329L855.382,380.314L855.233,380.29L855.099,380.269L855.015,380.256L854.921,380.241L854.77,380.217L854.634,380.196L854.551,380.184L854.46,380.169L854.306,380.146L854.169,380.125L854.088,380.113L853.998,380.099L853.842,380.076L853.703,380.056L853.623,380.044L853.535,380.031L853.377,380.008L853.236,379.987L853.158,379.976L853.072,379.964L852.912,379.941L852.769,379.921L852.693,379.91L852.609,379.898L852.447,379.875L852.302,379.855L852.228,379.845L852.145,379.834L851.981,379.811L851.834,379.791L851.761,379.782L851.681,379.771L851.514,379.749L851.366,379.729L851.295,379.72L851.216,379.709L851.048,379.688L850.897,379.668L850.828,379.659L850.751,379.649L850.581,379.628L850.428,379.609L850.36,379.6L850.285,379.591L850.113,379.57L849.958,379.551L849.892,379.543L849.819,379.534L849.645,379.513L849.488,379.494L849.424,379.486L849.353,379.478L849.176,379.458L849.018,379.439L848.955,379.432L848.886,379.424L848.707,379.404L848.547,379.385L848.485,379.379L848.418,379.371L848.238,379.351L848.075,379.333L848.015,379.327L847.95,379.32L847.768,379.3L847.604,379.283L847.545,379.276L847.482,379.27L847.298,379.251L847.131,379.233L847.075,379.228L847.013,379.221L846.827,379.203L846.658,379.186L846.603,379.18L846.544,379.174L846.356,379.156L846.185,379.139L846.132,379.134L846.074,379.129L845.885,379.111L845.712,379.095L845.66,379.09L845.604,379.085L845.413,379.067L845.238,379.051L845.188,379.047L845.134,379.042L844.94,379.025L844.763,379.01L844.715,379.005L844.663,379.001L844.467,378.985L844.288,378.969L844.241,378.966L844.192,378.961L843.994,378.945L843.813,378.931L843.768,378.927L843.72,378.923L843.521,378.908L843.337,378.893L843.294,378.89L843.248,378.886L843.046,378.871L842.861,378.857L842.819,378.854L842.776,378.851L842.572,378.837L842.384,378.823L842.345,378.82L842.303,378.817L842.097,378.803L841.907,378.79L841.869,378.788L841.829,378.785L841.622,378.772L841.43,378.759L841.394,378.757L841.356,378.754L841.146,378.741L840.952,378.729L840.918,378.727L840.881,378.725L840.669,378.712L840.474,378.701L840.441,378.699L840.407,378.697L840.193,378.685L839.995,378.674L839.964,378.672L839.932,378.671L839.716,378.659L839.516,378.649L839.487,378.647L839.457,378.646L839.238,378.635L839.037,378.625L839.009,378.624L838.981,378.622L838.76,378.612L838.557,378.603L838.505,378.601L838.281,378.591L838.077,378.582L838.028,378.58L837.802,378.571L837.596,378.563L837.551,378.561L837.323,378.553L837.115,378.545L837.074,378.544L836.843,378.536L836.634,378.529L836.596,378.528L836.362,378.521L836.152,378.514L836.118,378.514L835.88,378.507L835.67,378.501L835.64,378.501L835.398,378.495L835.188,378.49L835.161,378.489L834.915,378.484L834.705,378.48L834.682,378.479L834.431,378.475L834.221,378.471L834.203,378.471L833.944,378.467L833.738,378.464L833.723,378.464L833.455,378.461L833.254,378.459L833.242,378.459L832.959,378.457L832.769,378.455L832.762,378.455L832.285,378.453L832.283,378.453C832.122,378.452 831.961,378.452 831.8,378.452C831.495,378.452 831.19,378.453 830.884,378.455Z" style="fill:url(#_Linear4);"/>
            </g>
        </g>
    </g>
    <defs>
        <linearGradient id="_Linear1" x1="0" y1="0" x2="1" y2="0" gradientUnits="userSpaceOnUse" gradientTransform="matrix(1.6967e-14,54.5682,-59.8953,1.54579e-14,38.6088,194.123)"><stop offset="0" style="stop-color:rgb(24,136,193);stop-opacity:1"/><stop offset="1" style="stop-color:rgb(0,71,109);stop-opacity:1"/></linearGradient>
        <linearGradient id="_Linear2" x1="0" y1="0" x2="1" y2="0" gradientUnits="userSpaceOnUse" gradientTransform="matrix(32.5932,357.439,-357.439,32.5932,763.9,555.404)"><stop offset="0" style="stop-color:rgb(22,125,179);stop-opacity:1"/><stop offset="1" style="stop-color:rgb(6,88,132);stop-opacity:1"/></linearGradient>
        <linearGradient id="_Linear3" x1="0" y1="0" x2="1" y2="0" gradientUnits="userSpaceOnUse" gradientTransform="matrix(1.16433e-14,190.15,-190.15,1.16433e-14,372.674,159.826)"><stop offset="0" style="stop-color:rgb(22,125,179);stop-opacity:1"/><stop offset="1" style="stop-color:rgb(6,88,132);stop-opacity:1"/></linearGradient>
        <linearGradient id="_Linear4" x1="0" y1="0" x2="1" y2="0" gradientUnits="userSpaceOnUse" gradientTransform="matrix(-2.19776e-14,358.922,358.922,2.19776e-14,857.863,318.624)"><stop offset="0" style="stop-color:rgb(22,125,179);stop-opacity:1"/><stop offset="1" style="stop-color:rgb(6,88,132);stop-opacity:1"/></linearGradient>
    </defs>
</svg>
